<svg xmlns="http://www.w3.org/2000/svg" version="1.1" xmlns:xlink="http://www.w3.org/1999/xlink" xmlns:svgjs="http://svgjs.dev/svgjs" width="2000" height="2024" viewBox="0 0 2000 2024"><g transform="matrix(1,0,0,1,1.7681574949036758,0.8194331983804659)"><svg viewBox="0 0 244 247" data-background-color="#ffffff" preserveAspectRatio="xMidYMid meet" height="2024" width="2000" xmlns="http://www.w3.org/2000/svg" xmlns:xlink="http://www.w3.org/1999/xlink"><g id="tight-bounds" transform="matrix(1,0,0,1,-0.21564433361524493,-0.09999999999999432)"><svg viewBox="0 0 244.43135999999998 247.2" height="247.2" width="244.43135999999998"><g><svg></svg></g><g><svg viewBox="0 0 244.43135999999998 247.2" height="247.2" width="244.43135999999998"><g transform="matrix(1,0,0,1,0,56.36458531337635)"><svg viewBox="0 0 244.43135999999998 134.47082937324728" height="134.47082937324728" width="244.43135999999998"><g><svg viewBox="0 0 244.43135999999998 134.47082937324728" height="134.47082937324728" width="244.43135999999998"><g><svg viewBox="0 0 244.43135999999998 134.47082937324728" height="134.47082937324728" width="244.43135999999998"><g><svg viewBox="0 0 244.43135999999998 134.47082937324728" height="134.47082937324728" width="244.43135999999998"><g id="textblocktransform"><svg viewBox="0 0 244.43135999999998 134.47082937324728" height="134.47082937324728" width="244.43135999999998" id="textblock"><g><svg viewBox="0 0 244.43135999999998 134.47082937324728" height="134.47082937324728" width="244.43135999999998"><g transform="matrix(1,0,0,1,0,0)"><svg width="244.43135999999998" viewBox="1.039149319447 -35.25 64.710850680553 35.6" height="134.47082937324728" data-palette-color="#0080ff"><path d="M12.8-2.5L12.8-32.75 5-32.75 3.55-25.6Q2.95-25.55 2.5-25.55 2.05-25.55 1.55-25.75L1.55-25.75Q1.35-27.9 1.18-30.18 1-32.45 1.05-35L1.05-35 30.3-35Q30.4-32.7 30.23-30.4 30.05-28.1 29.75-25.75L29.75-25.75Q29.25-25.55 28.8-25.55 28.35-25.55 27.75-25.6L27.75-25.6 26.3-32.75 18.05-32.75 18.05-2.5 22.2-1.5Q22.35-0.55 21.95 0.25L21.95 0.25Q20.6 0.15 18.78 0.08 16.95 0 15.55 0L15.55 0Q14.15 0 12.13 0.08 10.1 0.15 8.7 0.25L8.7 0.25Q8.55-0.7 8.8-1.5L8.8-1.5Q9.95-1.65 10.9-1.9 11.85-2.15 12.8-2.5L12.8-2.5ZM46 0.35L39.75 0Q38.35 0 36.32 0.08 34.3 0.15 32.9 0.25L32.9 0.25Q32.75-0.7 33-1.5L33-1.5Q34.05-1.65 35.05-1.9 36.05-2.15 37-2.5L37-2.5 37-32.5 33.15-33.5Q33-34.45 33.4-35.25L33.4-35.25Q34.75-35.2 36.42-35.1 38.1-35 39.5-35L39.5-35 46-35.2Q53.1-35.2 57.45-32.98 61.8-30.75 63.77-26.85 65.75-22.95 65.75-18L65.75-18Q65.75-12.85 64.1-9.33 62.45-5.8 59.65-3.68 56.85-1.55 53.32-0.6 49.8 0.35 46 0.35L46 0.35ZM42.25-32.75L42.25-2.25Q44-2.1 45.55-2.1L45.55-2.1Q50.95-2.1 54.17-3.83 57.4-5.55 58.8-9.08 60.2-12.6 60.2-18L60.2-18Q60.2-22.8 58.72-26.13 57.25-29.45 53.87-31.15 50.5-32.85 44.8-32.85L44.8-32.85Q44.2-32.85 43.57-32.83 42.95-32.8 42.25-32.75L42.25-32.75Z" opacity="1" transform="matrix(1,0,0,1,0,0)" fill="#0080ff" class="wordmark-text-0" data-fill-palette-color="primary" id="text-0"></path></svg></g></svg></g></svg></g></svg></g><g></g></svg></g></svg></g></svg></g><path d="M0 50.365L0 1 244.431 1 244.431 50.365 232.305 50.365 232.305 13.127 12.127 13.127 12.127 50.365 0 50.365M0 196.835L0 246.2 244.431 246.2 244.431 196.835 232.305 196.835 232.305 234.073 12.127 234.073 12.127 196.835 0 196.835" fill="#0080ff" stroke="transparent" data-fill-palette-color="tertiary"></path></svg></g><defs></defs></svg><rect width="244.43135999999998" height="247.2" fill="none" stroke="none" visibility="hidden"></rect></g></svg></g></svg>